<svg width="123" height="101" xmlns="http://www.w3.org/2000/svg">
    <g fill="none" fill-rule="evenodd">
        <g fill="currentColor" fill-rule="nonzero">
            <path d="M36.674 82.253a1.001 1.001 0 01-1.293.569 1.004 1.004 0 01-.578-1.292c9.045-23.394-3.395-44.46 8.628-55.985C55.542 13.93 92.12 11.937 107.236 12.36a.99.99 0 01.97 1.023.984.984 0 01-1.023.97c-14.557-.396-51.132 2.07-62.835 13.296-11.811 11.32 1.252 31.482-7.674 54.603z"/>
            <path d="M100.381 1.747a.997.997 0 011.034-.963c.547.02.983.489.963 1.036-.057 1.432 5.427 3.95 10.599 6.32 4.802 2.204 9.362 4.29 9.908 6.195.342 1.193-.314 2.13-2.332 2.71-.98.28-2.111.542-3.293.808-4.467 1.031-9.697 2.23-12.27 6.382a.996.996 0 01-1.375.321.99.99 0 01-.331-1.373c3.014-4.862 8.683-6.165 13.523-7.271 1.112-.257 2.176-.5 3.194-.791.673-.193.968-.216.963-.235-.293-1.02-4.437-2.923-8.817-4.926-5.758-2.638-11.876-5.443-11.766-8.213z"/>
        </g>
        <text font-family="Roboto-Regular, Roboto" font-size="18" fill="currentColor" transform="translate(-1 -34)">
            <tspan x=".012" y="134">Click me</tspan>
        </text>
    </g>
</svg>
