<?xml version="1.0" standalone="no"?>
<!DOCTYPE svg PUBLIC "-//W3C//DTD SVG 20010904//EN"
 "http://www.w3.org/TR/2001/REC-SVG-20010904/DTD/svg10.dtd">
<svg version="1.0" xmlns="http://www.w3.org/2000/svg"
 width="700.000000pt" height="700.000000pt" viewBox="0 0 700.000000 700.000000"
 preserveAspectRatio="xMidYMid meet">
<metadata>
Created by potrace 1.11, written by Peter Selinger 2001-2013
</metadata>
<g transform="translate(0.000000,700.000000) scale(0.100000,-0.100000)"
fill="#000000" stroke="none">
<path d="M3615 6985 c-657 -73 -1291 -371 -1756 -826 -42 -41 -50 -50 -18 -21
32 28 60 52 62 52 3 0 35 -41 72 -91 l68 -90 -39 -32 c-337 -276 -577 -544
-840 -940 -52 -77 -94 -138 -94 -134 0 3 15 48 34 99 72 198 168 394 285 578
33 52 55 97 50 98 -19 7 -155 -40 -234 -81 -62 -32 -102 -63 -175 -137 -105
-105 -150 -173 -191 -289 -55 -155 -61 -312 -20 -475 20 -74 71 -188 111 -245
17 -24 17 -33 5 -131 -21 -163 -29 -423 -16 -510 23 -153 95 -247 276 -360
306 -190 662 -312 1040 -356 77 -9 141 -17 142 -18 1 -1 -131 -29 -295 -61
-282 -57 -299 -62 -332 -92 -30 -27 -35 -38 -35 -75 0 -35 10 -57 55 -123 143
-212 347 -351 543 -371 37 -4 67 -8 67 -9 0 -1 -20 -37 -45 -80 -158 -278
-232 -603 -205 -900 37 -414 229 -777 544 -1031 99 -80 286 -193 386 -233 342
-136 829 -135 1302 5 426 125 803 350 1123 669 292 292 492 615 619 999 183
551 176 1169 -19 1702 -88 242 -257 540 -422 744 -94 118 -270 293 -383 382
-87 69 -276 195 -349 232 -21 11 -35 31 -50 71 -141 377 -474 724 -846 884
-44 18 -81 35 -83 36 -2 2 47 160 108 352 206 642 192 586 165 664 -23 63 -58
104 -117 133 -50 25 -58 26 -212 25 -89 -1 -215 -7 -281 -14z m-745 -1356
c327 -40 591 -267 682 -586 29 -102 32 -313 4 -413 -73 -270 -281 -486 -550
-572 -43 -14 -102 -21 -196 -25 -165 -7 -256 12 -395 82 -203 100 -358 294
-416 520 -27 103 -29 269 -5 375 24 102 103 261 168 337 133 156 322 260 518
283 95 11 98 11 190 -1z m599 -3724 c62 -22 125 -69 236 -176 55 -53 122 -112
148 -132 103 -78 267 -99 415 -52 72 23 190 88 206 114 4 6 12 11 17 11 12 0
-54 -125 -118 -222 -127 -192 -349 -357 -593 -439 -248 -83 -510 -33 -669 128
-136 138 -189 312 -146 477 36 137 144 246 290 292 55 17 164 17 214 -1z"/>
<path d="M3011 4919 c-148 -29 -231 -191 -165 -323 27 -53 85 -105 137 -122
193 -64 369 134 284 319 -29 63 -88 113 -146 123 -20 3 -43 7 -51 9 -8 1 -35
-1 -59 -6z"/>
<path d="M1744 6048 l-19 -23 23 19 c21 18 27 26 19 26 -2 0 -12 -10 -23 -22z"/>
</g>
</svg>
