<svg xmlns="http://www.w3.org/2000/svg" width="933" height="933" viewBox="0 0 933 933">
  <path d="M397.14315,70.1712636 C397.848075,69.5833164 452.83222,70.6416213 457.179257,71.347158 C459.411519,71.8175158 463.641069,72.2878735 466.578256,72.6406419 C475.507305,73.5813574 489.135854,75.6979673 497.125003,77.5793984 C501.354553,78.4025245 506.054052,79.4608295 507.698877,79.8135978 C509.343702,80.0487767 514.630639,81.3422605 519.447626,82.6357444 C524.264613,83.9292282 529.316575,85.2227121 530.608937,85.5754804 C535.190949,86.7513748 546.234773,90.514237 552.696585,93.1012047 C554.106435,93.8067413 556.573672,94.6298674 558.218497,95.1002252 C559.863322,95.5705829 563.857896,97.0992457 567.030059,98.510319 C570.319708,100.038982 574.666745,101.802823 576.664033,102.625949 C578.778808,103.449076 580.188657,104.62497 579.718707,105.330507 C579.366245,106.036043 579.60122,106.153633 580.306145,105.683275 C582.538407,104.272202 626.008778,127.6725 627.30114,131.082594 C627.536115,131.552952 628.358528,132.02331 629.063453,132.02331 C629.885865,132.02331 631.765665,133.081615 633.41049,134.375099 C635.055315,135.668583 641.399639,140.48975 647.508988,145.075738 C659.6102,154.130125 671.006486,163.890048 681.462873,174.473098 C689.569509,182.704359 698.028608,191.876336 698.028608,192.581872 C698.028608,192.817051 699.438458,194.580893 701.083283,196.344734 C702.845596,198.108576 706.722683,203.047332 709.894845,207.280552 C713.067007,211.513772 716.004194,215.394224 716.591632,216.09976 C719.528819,219.862623 722.818469,224.918969 722.231031,224.918969 C721.878569,224.918969 722.583494,225.977274 723.875856,227.270757 C725.168218,228.564241 726.225606,230.328083 726.225606,231.268798 C726.225606,232.209514 726.695556,233.15023 727.165506,233.385408 C728.927818,234.090945 739.736667,254.19874 746.080991,268.427062 C751.720391,281.361901 760.17949,306.526041 762.05929,316.403554 C762.176777,317.461859 762.99919,320.519185 763.704115,323.106152 C764.40904,325.69312 765.231452,330.749466 765.701402,334.277149 C766.053864,337.804832 766.641302,340.979747 766.876277,341.450105 C768.051152,343.566715 769.108539,362.616205 768.991052,381.900873 C768.873564,402.479025 768.051152,409.88716 764.526527,424.821019 C763.821602,427.643166 763.586627,428.701471 762.176777,435.16889 C761.824315,436.579963 761.236877,438.461394 760.766927,439.166931 C760.17949,439.990057 759.70954,441.40113 759.592053,442.459435 C759.357078,445.63435 752.307828,462.096872 747.020891,472.091975 C740.911542,483.61574 733.03988,495.609863 725.403193,504.66425 C717.766507,513.953816 700.260871,530.651517 698.968508,529.94598 C698.381071,529.593212 698.146096,529.82839 698.263583,530.416338 C698.616046,531.474643 683.812622,543.586355 682.285285,543.586355 C681.932823,543.586355 679.348098,545.115018 676.528398,547.114038 C664.074724,555.462889 632.705565,568.280138 617.667166,571.102284 C616.257316,571.337463 613.907567,571.92541 612.262742,572.278179 C600.748968,574.982736 589.470169,575.570683 540.595374,576.041041 C492.073041,576.628988 488.900879,576.746578 489.605804,577.804883 C489.840779,578.157651 487.843491,579.215956 485.141279,579.921493 C472.217655,583.801944 456.826794,599.206161 452.244782,612.846536 C451.304882,615.433504 450.364983,617.432524 450.01252,617.197345 C449.190108,616.374219 448.485183,625.781375 448.60267,635.894067 C448.60267,642.596665 449.425083,647.300242 451.187395,652.356588 C452.714732,656.23704 453.889607,660.35267 454.007095,661.410975 C454.124582,662.46928 454.359557,663.174817 454.594532,662.939638 C455.299457,662.351691 463.053631,672.699562 463.053631,674.110635 C463.053631,674.816172 463.523581,675.28653 464.111019,675.28653 C464.580969,675.28653 466.343281,677.28555 467.988106,679.637339 C483.026504,702.920048 480.206805,733.258124 461.173831,752.660382 C447.427795,766.418347 435.444071,770.533977 410.536724,769.94603 C401.607675,769.828441 394.32345,769.475672 394.32345,769.475672 C394.32345,769.358083 391.151288,769.122904 387.274201,768.887725 C372.705753,767.947009 351.910467,764.536916 334.404831,759.950927 C329.940307,758.775033 324.65337,757.481549 322.891057,757.128781 C321.128745,756.658423 319.95387,755.835297 320.306333,755.24735 C320.658795,754.659403 320.188845,754.424224 319.248945,754.776992 C313.609546,756.893602 249.813839,729.142494 238.887503,719.852928 C237.830116,718.912212 236.420266,718.089086 235.950316,718.089086 C233.483079,717.736318 205.051106,697.628523 197.884369,691.161104 C196.47452,689.86762 193.067382,686.927884 190.247683,684.693685 C180.966171,677.050371 168.160035,664.350712 168.86496,663.292407 C169.217422,662.704459 168.982447,662.46928 168.39501,662.58687 C166.632698,663.174817 159.700936,655.413914 160.640836,653.885251 C161.110786,653.179715 160.993298,652.944536 160.170886,653.414893 C159.465961,653.767662 156.411286,651.063105 153.239124,647.417832 C150.184449,643.65497 147.364749,640.362465 147.012287,640.009697 C146.659824,639.656929 144.0751,636.246835 141.137913,632.366383 C138.200725,628.485932 135.616001,625.075838 135.263538,624.72307 C134.911076,624.370301 134.206151,623.311996 133.501226,622.253691 C132.326351,620.48985 130.564039,617.785293 121.634989,604.027328 C119.402727,600.734824 117.640415,597.559909 117.640415,597.089551 C117.640415,596.501604 116.93549,595.20812 115.99559,594.267404 C113.763328,591.680437 96.4926668,557.22673 96.4926668,555.22771 C96.4926668,554.639763 95.4352794,551.935205 94.1429171,549.113059 C92.1456298,544.762249 86.9761803,530.298748 83.6865306,519.48052 C82.7466307,516.540784 79.5744685,503.723534 75.4624064,485.73235 C74.7574814,482.557435 74.7574814,481.263951 75.8148688,481.263951 C76.6372813,481.263951 76.5197938,480.911183 75.5798939,480.205646 C74.639994,479.735288 74.170044,478.559394 74.2875315,477.618678 C74.405019,476.677963 74.170044,475.1493 73.8175815,474.208585 C73.1126566,472.444743 72.4077317,467.035629 70.9978818,452.454538 C68.7656195,430.582902 70.5279319,375.315864 73.8175815,366.026298 C74.170044,365.085583 74.639994,362.145847 74.7574814,359.558879 C75.1099439,355.560838 76.6372813,348.505472 79.456981,337.334475 C83.5690431,320.754363 84.9788929,315.698017 85.8013054,313.698997 C86.3887428,312.405513 88.2685426,307.113988 90.030855,301.940053 C91.7931673,296.766117 93.9079421,290.886645 94.7303545,289.005214 C95.5527669,287.006194 97.4325667,282.772974 98.9599041,279.36288 C100.369754,275.952786 102.132066,273.600997 102.719504,273.953766 C103.424429,274.306534 103.541916,274.071355 103.071966,273.248229 C102.132066,271.719566 111.883528,251.611772 118.81529,240.793543 C120.107652,238.794523 121.987452,235.737197 123.044839,233.855766 C126.217001,228.093884 135.381026,215.041456 137.4958,213.160024 C138.553188,212.219309 139.493088,211.043415 139.493088,210.573057 C139.3756,209.86752 140.78545,207.986089 151.946761,194.345714 C159.700936,184.820969 186.018133,158.245755 192.24497,153.659767 C194.712207,151.778336 198.941757,148.250653 201.643969,145.898864 C204.228694,143.429486 206.813419,141.430465 207.283369,141.430465 C207.870806,141.430465 209.045681,140.607339 210.103068,139.666624 C211.042968,138.725908 212.335331,138.25555 213.040256,138.608319 C213.74518,139.078676 213.980155,138.843497 213.627693,138.25555 C212.335331,136.13894 238.065091,119.558829 260.035251,108.152653 C269.316763,103.331486 291.521898,93.3363836 294.459085,92.6308469 C295.16401,92.5132575 296.456372,92.0428997 297.396272,91.6901314 C305.855372,88.1624481 325.358295,82.4005655 339.104331,79.2256506 C362.484341,73.8165363 364.364141,73.4637679 364.364141,74.8748412 C364.364141,75.8155568 364.599116,75.8155568 365.304041,74.8748412 C366.126453,73.4637679 372.000828,72.5230524 387.274201,71.347158 C392.443651,70.8768002 396.908175,70.4064425 397.14315,70.1712636 Z M207.5,297 C173.47,297 146,324.47 146,358.5 C146,392.53 173.47,420 207.5,420 C241.53,420 269,392.53 269,358.5 C269,324.47 241.53,297 207.5,297 Z M631.5,297 C597.47,297 570,324.47 570,358.5 C570,392.53 597.47,420 631.5,420 C665.53,420 693,392.53 693,358.5 C693,324.47 665.53,297 631.5,297 Z M320.5,144 C286.47,144 259,171.47 259,205.5 C259,239.53 286.47,267 320.5,267 C354.53,267 382,239.53 382,205.5 C382,171.47 354.53,144 320.5,144 Z M508.5,144 C474.47,144 447,171.47 447,205.5 C447,239.53 474.47,267 508.5,267 C542.53,267 570,239.53 570,205.5 C570,171.47 542.53,144 508.5,144 Z"/>
</svg>
