<svg xmlns="http://www.w3.org/2000/svg" width="256" height="256">
    <g fill="none" fill-rule="nonzero">
        <path fill="#C3C3C3" fill-opacity=".77" d="M128 19C67.808 19 19 67.808 19 128s48.808 109 109 109c10.052 0 18.167-8.114 18.167-18.167 0-4.723-1.817-8.962-4.724-12.232-2.785-3.149-4.602-7.388-4.602-11.99 0-10.052 8.115-18.167 18.167-18.167h21.436c33.427 0 60.556-27.128 60.556-60.555C237 62.358 188.192 19 128 19z"/>
        <path fill="#1976D2" d="M62 128c-10.513 0-19-8.487-19-19s8.487-19 19-19 19 8.487 19 19-8.487 19-19 19z"/>
        <path fill="#DC004E" d="M97 80c-10.513 0-19-8.487-19-19s8.487-19 19-19 19 8.487 19 19-8.487 19-19 19z"/>
        <path fill="#F44336" d="M156 80c-10.513 0-19-8.487-19-19s8.487-19 19-19 19 8.487 19 19-8.487 19-19 19z"/>
        <path fill="#FFF" d="M194 128c-10.513 0-19-8.487-19-19s8.487-19 19-19 19 8.487 19 19-8.487 19-19 19z"/>
    </g>
</svg>
